<?xml version="1.0" encoding="utf-8"?><svg version="1.1" id="Layer_1" xmlns="http://www.w3.org/2000/svg" xmlns:xlink="http://www.w3.org/1999/xlink" x="0px" y="0px" viewBox="0 0 101 122.88" style="enable-background:new 0 0 101 122.88" xml:space="preserve"><style type="text/css">.st0{fill-rule:evenodd;clip-rule:evenodd;}</style><g><path class="st0" d="M14.7,0h6.28c1.88,0,3.42,1.54,3.42,3.42v21.12h20.55V3.42c0-1.88,1.54-3.42,3.42-3.42h6.28 c1.88,0,3.42,1.54,3.42,3.42v21.12h11.27v27.11c0,14.91-12.2,27.11-27.1,27.11c1.08,10.77,3.62,18.33,7.1,23.06 c2.18,2.96,4.69,4.66,7.35,5.21c2.86,0.59,6.17-0.01,9.72-1.68c6.76-3.19,13.88-9.95,20.23-19.71c2.35-3.62,7.19-4.64,10.8-2.29 c3.62,2.35,4.64,7.19,2.3,10.8c-7.98,12.26-17.37,20.97-26.65,25.34c-6.6,3.11-13.24,4.13-19.51,2.84 c-6.46-1.33-12.23-5.01-16.84-11.27c-5.25-7.14-8.95-17.79-10.22-32.31C11.88,78.44,0,66.37,0,51.65V24.54h11.27V3.42 C11.27,1.54,12.81,0,14.7,0L14.7,0z"/></g></svg>